<svg width="24" height="24" viewBox="0 0 24 24" fill="none" xmlns="http://www.w3.org/2000/svg">
<path d="M23.6328 22.2266L17.8809 16.4746C19.3066 14.7363 20.166 12.5098 20.166 10.083C20.166 4.5166 15.6494 0 10.083 0C4.51172 0 0 4.5166 0 10.083C0 15.6494 4.51172 20.166 10.083 20.166C12.5098 20.166 14.7314 19.3115 16.4697 17.8857L22.2217 23.6328C22.6123 24.0234 23.2422 24.0234 23.6328 23.6328C24.0234 23.2471 24.0234 22.6123 23.6328 22.2266ZM10.083 18.1592C5.625 18.1592 2.00195 14.5361 2.00195 10.083C2.00195 5.62988 5.625 2.00195 10.083 2.00195C14.5361 2.00195 18.1641 5.62988 18.1641 10.083C18.1641 14.5361 14.5361 18.1592 10.083 18.1592Z" fill="white"/>
</svg>
