<svg width="20" height="20" viewBox="0 0 20 20" fill="none" xmlns="http://www.w3.org/2000/svg">
<path d="M18.6607 4.98335C17.7679 3.88599 16.5551 3.01911 15.0224 2.38294C13.4897 1.74677 11.8155 1.42873 10 1.42873C8.18453 1.42873 6.51038 1.74677 4.97766 2.38294C3.44494 3.01911 2.23218 3.88583 1.3393 4.98335C0.446381 6.08079 0 7.27678 0 8.57143C0 9.68744 0.336574 10.7331 1.01 11.7078C1.68342 12.6825 2.60405 13.501 3.77233 14.1632C3.69039 14.4607 3.59368 14.7434 3.48204 15.0115C3.37043 15.2793 3.27001 15.4988 3.18072 15.67C3.09136 15.841 2.97057 16.0309 2.81792 16.239C2.6655 16.4474 2.55018 16.5945 2.47204 16.6801C2.39398 16.7657 2.26564 16.9068 2.08695 17.1041C1.9085 17.3012 1.79311 17.4298 1.74108 17.4893C1.73353 17.4931 1.70382 17.5264 1.65175 17.5899C1.59972 17.653 1.57361 17.6845 1.57361 17.6845L1.50665 17.7849C1.46939 17.8405 1.45266 17.8759 1.45634 17.8906C1.46009 17.9056 1.45266 17.9428 1.43406 18.0022C1.41541 18.0618 1.41732 18.1065 1.43961 18.1362V18.1474C1.46939 18.2739 1.52885 18.3762 1.61814 18.4543C1.70742 18.5322 1.80804 18.5713 1.91953 18.5713H1.97539C2.45914 18.5116 2.8832 18.43 3.24772 18.3258C5.1972 17.8274 6.90856 16.9271 8.38171 15.6249C8.93969 15.6844 9.47915 15.7141 9.99992 15.7141C11.8154 15.7141 13.4896 15.3961 15.0223 14.7597C16.555 14.1235 17.7678 13.2569 18.6606 12.1595C19.5535 11.0622 20 9.86605 20 8.5714C20 7.27694 19.5536 6.08079 18.6607 4.98335ZM17.4051 11.4175C16.6273 12.2953 15.5782 12.993 14.2576 13.51C12.9369 14.0269 11.5176 14.2856 9.99973 14.2856C9.54592 14.2856 9.06232 14.2559 8.54894 14.1963L7.91277 14.1295L7.43285 14.5537C6.51781 15.3574 5.49464 15.9934 4.3637 16.4622C4.7059 15.8596 4.96632 15.2197 5.14497 14.5427L5.44628 13.4712L4.47534 12.9133C3.50807 12.3624 2.75854 11.7096 2.22643 10.9543C1.6944 10.1993 1.4285 9.40485 1.4285 8.57159C1.4285 7.55221 1.81727 6.60363 2.59475 5.72565C3.37246 4.84774 4.42143 4.15017 5.74216 3.63307C7.06289 3.11594 8.48202 2.85715 9.99996 2.85715C11.5178 2.85715 12.9369 3.11582 14.2575 3.63291C15.5781 4.15005 16.6272 4.84759 17.405 5.72549C18.1825 6.60348 18.5713 7.5521 18.5713 8.5714C18.5713 9.59069 18.1825 10.5395 17.4051 11.4175Z" fill="#A8A8A8"/>
</svg>
