<svg width="25" height="25" viewBox="0 0 25 25" fill="none" xmlns="http://www.w3.org/2000/svg">
<g clip-path="url(#clip0_84_11)">
<path d="M17.1875 0H7.8125C3.49844 0 0 3.49844 0 7.8125V17.1875C0 21.5016 3.49844 25 7.8125 25H17.1875C21.5016 25 25 21.5016 25 17.1875V7.8125C25 3.49844 21.5016 0 17.1875 0ZM22.6562 17.1875C22.6562 20.2031 20.2031 22.6562 17.1875 22.6562H7.8125C4.79688 22.6562 2.34375 20.2031 2.34375 17.1875V7.8125C2.34375 4.79688 4.79688 2.34375 7.8125 2.34375H17.1875C20.2031 2.34375 22.6562 4.79688 22.6562 7.8125V17.1875Z" fill="white"/>
<path d="M12.5 6.25C9.04844 6.25 6.25 9.04844 6.25 12.5C6.25 15.9516 9.04844 18.75 12.5 18.75C15.9516 18.75 18.75 15.9516 18.75 12.5C18.75 9.04844 15.9516 6.25 12.5 6.25ZM12.5 16.4062C10.3469 16.4062 8.59375 14.6531 8.59375 12.5C8.59375 10.3453 10.3469 8.59375 12.5 8.59375C14.6531 8.59375 16.4062 10.3453 16.4062 12.5C16.4062 14.6531 14.6531 16.4062 12.5 16.4062Z" fill="white"/>
<path d="M19.2186 6.61387C19.6785 6.61387 20.0514 6.241 20.0514 5.78105C20.0514 5.3211 19.6785 4.94824 19.2186 4.94824C18.7586 4.94824 18.3857 5.3211 18.3857 5.78105C18.3857 6.241 18.7586 6.61387 19.2186 6.61387Z" fill="white"/>
</g>
<defs>
<clipPath id="clip0_84_11">
<rect width="25" height="25" fill="white"/>
</clipPath>
</defs>
</svg>
