<svg width="122" height="122" viewBox="0 0 122 122" fill="none" xmlns="http://www.w3.org/2000/svg">
<g clip-path="url(#clip0_0_1333)">
<path d="M105.155 0H16.8452C11.3655 0 6.90723 4.45823 6.90723 9.93798V51.0598C6.90723 56.5395 11.3652 60.9975 16.845 60.9975H20.4604L30.2301 74.1017C31.2929 75.5269 32.8903 76.3111 34.5745 76.3111C35.1454 76.3111 35.7263 76.221 36.2996 76.0352C38.5643 75.3013 40.0483 73.289 40.0812 70.909L40.2174 60.9977H51.1769C50.4926 62.6826 50.1121 64.5221 50.1121 66.4498C50.1121 71.0896 52.2997 75.2252 55.6943 77.8885C44.7753 81.7658 36.9597 91.9657 36.9597 103.907V117.232H22.6855C21.369 117.232 20.3017 118.299 20.3017 119.616C20.3017 120.932 21.369 121.999 22.6855 121.999H101.499C102.816 121.999 103.883 120.932 103.883 119.616C103.883 118.299 102.816 117.232 101.499 117.232H93.9162V103.908C93.9162 91.5611 85.5604 81.0769 74.0588 77.517C77.1924 74.8488 79.1854 70.8788 79.1854 66.4501C79.1854 58.4348 72.6644 51.9138 64.6491 51.9138C60.6143 51.9138 56.9593 53.5672 54.3232 56.2304H37.8668C36.5632 56.2304 35.5012 57.2779 35.4833 58.5813L35.3146 70.8435C35.3089 71.2583 35.0482 71.4294 34.8302 71.5002C34.6126 71.5705 34.3007 71.5848 34.0529 71.2526L23.5683 57.1895C23.1184 56.586 22.41 56.2304 21.6573 56.2304H16.8452C13.9942 56.2304 11.6747 53.911 11.6747 51.06V9.93798C11.6747 7.08695 13.9942 4.76728 16.8452 4.76728H105.155C108.006 4.76728 110.326 7.08671 110.326 9.93798V51.0598C110.326 53.9108 108.006 56.2302 105.155 56.2302H96.0462C94.7296 56.2302 93.6624 57.2975 93.6624 58.614C93.6624 59.9305 94.7296 60.9977 96.0462 60.9977H105.155C110.635 60.9977 115.093 56.5397 115.093 51.06V9.93798C115.093 4.45823 110.635 0 105.155 0ZM89.1489 103.908V117.232H81.2901V104.749C81.2901 103.433 80.2229 102.365 78.9064 102.365C77.5899 102.365 76.5226 103.433 76.5226 104.749V117.232H54.7752V104.749C54.7752 103.433 53.7079 102.365 52.3914 102.365C51.0749 102.365 50.0077 103.433 50.0077 104.749V117.232H41.7281V103.908C41.7281 91.2687 52.3648 80.9864 65.4385 80.9864C78.5123 80.9864 89.1489 91.2687 89.1489 103.908ZM64.6493 56.681C70.0359 56.681 74.4181 61.0633 74.4181 66.4498C74.4181 71.8364 70.0359 76.2186 64.6493 76.2186C59.2627 76.2186 54.8805 71.8364 54.8805 66.4498C54.8805 61.0633 59.2627 56.681 64.6493 56.681Z" fill="#58AFDA"/>
<path d="M111.727 122C113.043 122 114.11 120.933 114.11 119.617C114.11 118.3 113.043 117.233 111.727 117.233C110.41 117.233 109.343 118.3 109.343 119.617C109.343 120.933 110.41 122 111.727 122Z" fill="#58AFDA"/>
<path d="M40.7075 31.8064C42.024 31.8064 43.0913 30.7392 43.0913 29.4226C43.0913 28.1061 42.024 27.0389 40.7075 27.0389C39.391 27.0389 38.3237 28.1061 38.3237 29.4226C38.3237 30.7392 39.391 31.8064 40.7075 31.8064Z" fill="#58AFDA"/>
<path d="M54.6147 31.8064C55.9312 31.8064 56.9985 30.7392 56.9985 29.4226C56.9985 28.1061 55.9312 27.0389 54.6147 27.0389C53.2982 27.0389 52.231 28.1061 52.231 29.4226C52.231 30.7392 53.2982 31.8064 54.6147 31.8064Z" fill="#58AFDA"/>
<path d="M67.0556 31.8064C68.3722 31.8064 69.4394 30.7392 69.4394 29.4226C69.4394 28.1061 68.3722 27.0389 67.0556 27.0389C65.7391 27.0389 64.6719 28.1061 64.6719 29.4226C64.6719 30.7392 65.7391 31.8064 67.0556 31.8064Z" fill="#58AFDA"/>
<path d="M80.6689 31.8064C81.9855 31.8064 83.0527 30.7392 83.0527 29.4226C83.0527 28.1061 81.9855 27.0389 80.6689 27.0389C79.3524 27.0389 78.2852 28.1061 78.2852 29.4226C78.2852 30.7392 79.3524 31.8064 80.6689 31.8064Z" fill="#58AFDA"/>
<path d="M85.8608 60.8953C87.1773 60.8953 88.2446 59.828 88.2446 58.5115C88.2446 57.195 87.1773 56.1277 85.8608 56.1277C84.5443 56.1277 83.4771 57.195 83.4771 58.5115C83.4771 59.828 84.5443 60.8953 85.8608 60.8953Z" fill="#58AFDA"/>
</g>
<defs>
<clipPath id="clip0_0_1333">
<rect width="122" height="122" fill="white"/>
</clipPath>
</defs>
</svg>
