<svg width="122" height="122" viewBox="0 0 122 122" fill="none" xmlns="http://www.w3.org/2000/svg">
<g clip-path="url(#clip0_0_1264)">
<path d="M119.612 28.4268C120.931 28.4268 122 27.3575 122 26.0385C122 24.7195 120.931 23.6502 119.612 23.6502C118.293 23.6502 117.224 24.7195 117.224 26.0385C117.224 27.3575 118.293 28.4268 119.612 28.4268Z" fill="#58AFDA"/>
<path d="M72.8064 97.8571H63.562C62.2431 97.8571 61.1737 98.9266 61.1737 100.245C61.1737 101.564 62.2429 102.634 63.562 102.634H72.8064C74.2296 102.634 75.3877 103.792 75.3877 105.215C75.3877 106.639 74.2296 107.797 72.8064 107.797H47.9219C44.1831 107.797 40.6672 106.148 38.2758 103.274L32.3252 96.1208C29.132 92.2826 24.4855 90.0344 19.5136 89.8902V75.8288H28.2795C32.6035 75.8288 36.6982 77.4827 39.8092 80.4857L52.653 92.8835C53.5587 93.7575 53.6009 95.2213 52.7471 96.1465C51.8772 97.0892 50.3998 97.1506 49.4543 96.284L39.3705 87.0404C38.3981 86.1492 36.8876 86.2147 35.9962 87.1869C35.105 88.1589 35.1706 89.6696 36.1427 90.561L46.2268 99.8049C47.5879 101.053 49.3102 101.668 51.0282 101.668C52.9461 101.668 54.8588 100.9 56.2568 99.386C58.8576 96.5683 58.7289 92.1096 55.9701 89.4465L43.1265 77.049C39.1205 73.1819 33.8476 71.0522 28.2797 71.0522H19.0832C18.2061 68.885 16.0806 67.3512 13.6025 67.3512H2.38829C1.06917 67.3514 0 68.4208 0 69.7395V87.1602C0 88.4789 1.06917 89.5485 2.38829 89.5485C3.70718 89.5485 4.77659 88.4791 4.77659 87.1602V72.1278H13.6028C14.2285 72.1278 14.7375 72.6368 14.7375 73.2625V92.3571C14.7375 92.9829 14.2285 93.4918 13.6028 93.4918H11.1284C9.80956 93.4918 8.74016 94.5612 8.74016 95.8801C8.74016 97.199 9.80932 98.2684 11.1284 98.2684H13.6025C16.0478 98.2684 18.1511 96.7758 19.0489 94.6539C22.7721 94.6663 26.2707 96.3124 28.6531 99.1758L34.6037 106.329C37.9053 110.297 42.7596 112.573 47.9217 112.573H72.8064C76.8633 112.573 80.164 109.272 80.164 105.215C80.164 101.158 76.8633 97.8571 72.8064 97.8571Z" fill="#58AFDA"/>
<path d="M87.7785 81.3138C86.7982 80.4312 85.2879 80.5108 84.4056 81.4913C84.4011 81.4963 84.3808 81.519 84.3763 81.5242C83.5042 82.5102 83.5976 84.0121 84.581 84.8871C85.0349 85.2909 85.601 85.4894 86.1653 85.4894C86.8232 85.4892 87.4787 85.2195 87.9515 84.6912L86.1808 83.0888L87.956 84.6862C88.8383 83.7059 88.759 82.1959 87.7785 81.3138Z" fill="#58AFDA"/>
<path d="M82.7876 86.5087C82.0118 85.4421 80.5089 85.2126 79.4416 85.989C78.3751 86.7646 78.1392 88.2581 78.9148 89.3249C79.3821 89.9673 80.11 90.3085 80.8482 90.3085C81.3353 90.3085 81.8269 90.1601 82.251 89.8515L82.2703 89.8374C83.3371 89.0618 83.5635 87.5752 82.7876 86.5087Z" fill="#58AFDA"/>
<path d="M76.8271 90.5027C76.2874 89.3068 74.883 88.7725 73.6844 89.3008C72.489 89.816 71.924 91.1973 72.4225 92.4047C72.8025 93.3261 73.6925 93.8827 74.6309 93.8827C74.9344 93.8827 75.243 93.8243 75.5411 93.7014C75.5652 93.6914 75.6109 93.6716 75.6347 93.6606C76.8364 93.1181 77.3692 91.7051 76.8271 90.5027Z" fill="#58AFDA"/>
<path d="M70.15 93.1642C69.8819 91.8785 68.6248 91.0538 67.3397 91.3106C66.0582 91.5568 65.2095 92.7887 65.4401 94.0768C65.6472 95.233 66.6535 96.0446 67.7882 96.0446C67.9278 96.0446 68.0698 96.0322 68.2121 96.0069C68.2421 96.0014 68.2726 95.9955 68.3028 95.9893C69.5934 95.7193 70.419 94.455 70.15 93.1642Z" fill="#58AFDA"/>
<path d="M96.9349 56.0061L94.5898 56.4567L96.9342 56.0019C96.6831 54.707 95.4297 53.8604 94.1349 54.1123C92.8401 54.3634 91.9942 55.6168 92.2453 56.9116L92.2568 56.9688C92.4922 58.0963 93.488 58.8758 94.5962 58.8758C94.7573 58.8758 94.9205 58.8593 95.0842 58.825C96.375 58.5553 97.2044 57.2972 96.9349 56.0061Z" fill="#58AFDA"/>
<path d="M94.7523 61.241C93.4377 61.1257 92.2797 62.0965 92.1637 63.4101C92.1627 63.4218 92.1596 63.4568 92.1589 63.4687C92.0621 64.784 93.0493 65.9364 94.3649 66.0331C94.4249 66.0376 94.4845 66.0395 94.5438 66.0395C95.7827 66.0395 96.829 65.0893 96.9212 63.834L94.5427 63.62L96.9214 63.83C97.0375 62.5163 96.0662 61.3571 94.7523 61.241Z" fill="#58AFDA"/>
<path d="M91.5268 75.1876C90.3805 74.5366 88.9177 74.9481 88.266 76.0937C87.6138 77.2404 88.0143 78.6982 89.1605 79.3506C89.5334 79.5629 89.9389 79.6637 90.3392 79.6637C91.1699 79.6637 91.977 79.2298 92.4173 78.4561C92.418 78.4549 92.4304 78.433 92.4311 78.4315C93.0812 77.2847 92.673 75.8385 91.5268 75.1876Z" fill="#58AFDA"/>
<path d="M93.8798 68.3793C92.6177 67.9959 91.2835 68.7115 90.9013 69.9739C90.5079 71.2328 91.2097 72.5724 92.4685 72.9655C92.7056 73.0399 92.9458 73.0749 93.1817 73.0749C94.1987 73.0749 95.1411 72.4204 95.4604 71.3981L95.4735 71.3557C95.8557 70.0935 95.1423 68.7618 93.8798 68.3793Z" fill="#58AFDA"/>
<path d="M30.8927 68.0253C30.6008 66.7474 29.3324 65.9442 28.05 66.2251C26.7621 66.5094 25.9481 67.7837 26.2324 69.0719L26.2491 69.1436C26.5136 70.2356 27.49 70.9669 28.5661 70.9669C28.7522 70.9669 28.9417 70.945 29.1306 70.8995C30.409 70.5902 31.1956 69.3035 30.8927 68.0253Z" fill="#58AFDA"/>
<path d="M31.4231 45.2701C30.2217 44.7276 28.8063 45.2615 28.2637 46.4637L28.2356 46.528C27.7161 47.7397 28.278 49.1403 29.4897 49.6604C29.7963 49.792 30.1149 49.8544 30.429 49.8544C31.353 49.8544 32.2332 49.3142 32.624 48.4138C33.1549 47.215 32.62 45.8108 31.4231 45.2701Z" fill="#58AFDA"/>
<path d="M28.7891 51.9565C27.4988 51.6875 26.2326 52.5143 25.9628 53.8056L25.9514 53.8628C25.7003 55.1576 26.5452 56.416 27.84 56.6671C27.9942 56.6969 28.1481 56.7114 28.2994 56.7114C29.4191 56.7114 30.417 55.9232 30.6382 54.7825C30.9079 53.4915 30.0801 52.226 28.7891 51.9565Z" fill="#58AFDA"/>
<path d="M35.3857 39.2801C34.3168 38.5121 32.8249 38.7578 32.0538 39.8246L33.981 41.2347L32.0498 39.8301C31.2739 40.8968 31.5098 42.3904 32.5764 43.1662C33.0005 43.4748 33.4921 43.623 33.9791 43.623C34.7173 43.623 35.4453 43.282 35.9125 42.6394L35.9383 42.6037C36.7034 41.5326 36.4546 40.0483 35.3857 39.2801Z" fill="#58AFDA"/>
<path d="M40.5681 34.2849C39.6857 33.3046 38.1755 33.2251 37.1952 34.1072C37.1945 34.1077 37.1762 34.1243 37.1754 34.1248C36.1963 35.0079 36.127 36.5091 37.0096 37.4889C37.479 38.0102 38.1288 38.2742 38.7817 38.2742C39.3555 38.2742 39.9319 38.0703 40.3903 37.6576C41.3706 36.7752 41.4502 35.2652 40.5681 34.2849Z" fill="#58AFDA"/>
<path d="M46.694 30.5217C46.0501 29.3705 44.595 28.9593 43.4438 29.6031C43.4348 29.6081 43.4055 29.6248 43.3966 29.63C42.2539 30.2884 41.8583 31.7505 42.5169 32.8933C42.9592 33.6608 43.7619 34.0904 44.5878 34.0904C44.9915 34.0904 45.4006 33.9877 45.7756 33.7716C46.9265 33.128 47.3378 31.6728 46.694 30.5217Z" fill="#58AFDA"/>
<path d="M53.4679 28.0924C53.0623 26.8373 51.7225 26.1461 50.4677 26.5521L51.1661 28.836L50.4636 26.5533C49.2034 26.9412 48.4957 28.2775 48.8836 29.5382C49.1995 30.565 50.1443 31.2248 51.1654 31.2248C51.3979 31.2248 51.6345 31.1907 51.8685 31.1185C51.879 31.1152 51.9124 31.1049 51.9231 31.1014C53.1781 30.6958 53.8734 29.3476 53.4679 28.0924Z" fill="#58AFDA"/>
<path d="M60.6053 27.2361C60.4895 25.9225 59.331 24.9522 58.0166 25.067L57.9928 25.0692C56.6792 25.185 55.7198 26.343 55.8356 27.6569C55.9453 28.8993 56.9982 29.8343 58.2235 29.8343C58.294 29.8343 58.3648 29.8312 58.4365 29.825C59.7499 29.7092 60.7211 28.55 60.6053 27.2361Z" fill="#58AFDA"/>
<path d="M30.0589 61.3688C30.0203 60.0506 28.9257 59.0065 27.6013 59.0441C26.2829 59.083 25.2454 60.1755 25.2843 61.4937L27.6723 61.4627L25.2843 61.4977C25.3036 62.8044 26.3689 63.8507 27.6714 63.8507C27.6833 63.8507 27.6952 63.8507 27.7071 63.8505C29.0257 63.8312 30.0792 62.7463 30.0599 61.4274C30.0599 61.416 30.0592 61.3807 30.0589 61.3688Z" fill="#58AFDA"/>
<path d="M63.4573 58.4339H61.6016H60.3978H58.5418C56.54 58.4339 54.9114 56.8052 54.9114 54.8032V51.9443C54.9114 49.9422 56.54 48.3136 58.5418 48.3136H63.9877C65.6972 48.3136 67.0878 49.7042 67.0878 51.4136C67.0878 52.7325 68.1569 53.8019 69.4761 53.8019C70.7952 53.8019 71.8644 52.7328 71.8644 51.4136C71.8644 47.0705 68.3311 43.5372 63.988 43.5372H63.3877V39.9816C63.3877 38.6627 62.3186 37.5933 60.9994 37.5933C59.6806 37.5933 58.6111 38.6625 58.6111 39.9816V43.5372H58.5416C53.9063 43.5375 50.135 47.309 50.135 51.9445V54.8034C50.135 59.4392 53.9065 63.2105 58.5418 63.2105H61.6016C61.6032 63.2105 61.6047 63.2102 61.6061 63.2102H63.4571C65.4591 63.2102 67.0878 64.8389 67.0878 66.8409V69.6998C67.0878 71.7018 65.4591 73.3305 63.4571 73.3305H58.0112C56.3017 73.3305 54.9114 71.9399 54.9114 70.2305C54.9114 68.9118 53.8422 67.8422 52.5231 67.8422C51.2042 67.8422 50.1348 68.9116 50.1348 70.2305C50.1348 74.5738 53.668 78.1068 58.0109 78.1068H58.6111V81.6622C58.6111 82.9809 59.6803 84.0505 60.9994 84.0505C62.3183 84.0505 63.3877 82.9811 63.3877 81.6622V78.1068H63.4573C68.0931 78.1068 71.8644 74.3353 71.8644 69.6998V66.8409C71.8644 62.2051 68.0928 58.4339 63.4573 58.4339Z" fill="#58AFDA"/>
<path d="M119.612 31.4398C118.293 31.4398 117.224 32.509 117.224 33.8281V49.7915H108.397C107.772 49.7915 107.263 49.2825 107.263 48.6568V29.5621C107.263 28.9364 107.772 28.4274 108.397 28.4274H110.697C112.016 28.4274 113.085 27.3583 113.085 26.0391C113.085 24.7203 112.016 23.6508 110.697 23.6508H108.397C105.922 23.6508 103.798 25.1813 102.919 27.3456C99.2079 27.324 95.7223 25.6801 93.3469 22.8247L87.396 15.6715C84.0946 11.7032 79.2406 9.42712 74.078 9.42712H49.1936C45.1366 9.42712 41.8359 12.7278 41.8359 16.7848C41.8359 20.8418 45.1366 24.1424 49.1936 24.1424H59.3691C60.688 24.1424 61.7574 23.0733 61.7574 21.7541C61.7574 20.4352 60.6883 19.3658 59.3691 19.3658H49.1936C47.7703 19.3658 46.6123 18.2078 46.6123 16.7845C46.6123 15.3613 47.7703 14.2032 49.1936 14.2032H74.0783C77.8171 14.2032 81.333 15.8519 83.7243 18.7261L89.6752 25.879C92.8682 29.7173 97.5149 31.9654 102.487 32.1096V46.1711H93.7207C89.3966 46.1711 85.302 44.5171 82.191 41.5141L69.3472 29.1163C68.4415 28.2421 68.3993 26.7783 69.2531 25.853C70.123 24.9104 71.6004 24.8489 72.5459 25.7156L82.6297 34.9592C83.6019 35.8504 85.1126 35.7851 86.004 34.8127C86.8952 33.8405 86.8296 32.3298 85.8574 31.4384L75.7736 22.1952C72.893 19.5548 68.3936 19.7426 65.7434 22.6138C63.1426 25.4313 63.2712 29.8902 66.0301 32.5533L78.8737 44.9511C82.8796 48.8179 88.1526 50.9479 93.7205 50.9479H102.949C103.845 53.0726 105.95 54.5676 108.397 54.5676H119.612C120.931 54.5676 122 53.4984 122 52.1793V33.8278C122 32.509 120.931 31.4398 119.612 31.4398Z" fill="#58AFDA"/>
<path d="M2.38829 98.2692C3.70731 98.2692 4.77659 97.1999 4.77659 95.8809C4.77659 94.5619 3.70731 93.4926 2.38829 93.4926C1.06928 93.4926 0 94.5619 0 95.8809C0 97.1999 1.06928 98.2692 2.38829 98.2692Z" fill="#58AFDA"/>
</g>
<defs>
<clipPath id="clip0_0_1264">
<rect width="122" height="122" fill="white"/>
</clipPath>
</defs>
</svg>
