<svg width="122" height="122" viewBox="0 0 122 122" fill="none" xmlns="http://www.w3.org/2000/svg">
<path d="M99.125 72.9141C97.8097 72.9141 96.7422 73.9816 96.7422 75.2969C96.7422 76.6122 97.8097 77.6797 99.125 77.6797C100.44 77.6797 101.508 76.6122 101.508 75.2969C101.508 73.9816 100.44 72.9141 99.125 72.9141Z" fill="#58AFDA"/>
<path d="M22.875 72.9141C21.5597 72.9141 20.4922 73.9816 20.4922 75.2969C20.4922 76.6122 21.5597 77.6797 22.875 77.6797C24.1903 77.6797 25.2578 76.6122 25.2578 75.2969C25.2578 73.9816 24.1903 72.9141 22.875 72.9141Z" fill="#58AFDA"/>
<path d="M114.752 62.3658C114.093 61.9233 113.258 61.8371 112.523 62.1361C108.162 63.912 103.54 64.8125 98.7866 64.8125H91.7979C78.7574 64.8125 68.1484 75.4215 68.1484 88.4619V94.6146C66.3265 96.0752 64.7567 97.4628 63.3828 98.8302V61.8623C79.3543 60.6416 91.9766 47.2555 91.9766 30.9766C91.9766 13.8961 78.0807 0 61 0C43.9195 0 30.0234 13.8961 30.0234 30.9766C30.0234 47.2555 42.6457 60.6416 58.6172 61.8623V98.8302C57.2433 97.4628 55.6735 96.0755 53.8516 94.6146V88.4619C53.8516 75.4215 43.2426 64.8125 30.2021 64.8125H23.2134C18.4599 64.8125 13.8384 63.912 9.47668 62.1361C8.74182 61.8371 7.90641 61.9231 7.24828 62.3658C6.59014 62.8086 6.19531 63.5498 6.19531 64.3431V68.992C6.19531 85.0819 19.2853 98.1719 35.3752 98.1719H50.6688C54.2381 101.014 56.7352 103.503 58.6172 106.096V107.703H51.4688C45.7152 107.703 40.9015 111.803 39.7944 117.234H32.4062C31.0902 117.234 30.0234 118.301 30.0234 119.617C30.0234 120.933 31.0902 122 32.4062 122H89.5938C90.9095 122 91.9766 120.933 91.9766 119.617C91.9766 118.301 90.9095 117.234 89.5938 117.234H82.2056C81.0985 111.803 76.285 107.703 70.5312 107.703H63.3828V106.096C65.265 103.503 67.7619 101.014 71.3312 98.1719H86.6248C102.714 98.1719 115.805 85.0819 115.805 68.992V64.3431C115.805 63.5498 115.41 62.8086 114.752 62.3658ZM49.0859 91.0168C47.1127 89.5945 45.0261 88.1483 42.8656 86.6519C39.4229 84.2679 35.8632 81.8024 32.0369 78.9483C30.982 78.1615 29.4892 78.3786 28.7022 79.4337C27.9154 80.4885 28.1324 81.9814 29.1875 82.7684C33.0811 85.6728 36.8378 88.2744 40.1525 90.5698C41.5462 91.535 42.9083 92.4789 44.2257 93.4062H35.3752C21.9131 93.4062 10.9609 82.4541 10.9609 68.992V67.7269C14.9097 68.9564 19.0172 69.5781 23.2134 69.5781H30.2021C40.6148 69.5781 49.0859 78.0493 49.0859 88.4619V91.0168ZM70.5312 112.469C73.6375 112.469 76.2862 114.461 77.2698 117.234H44.7302C45.7138 114.461 48.3623 112.469 51.4688 112.469H70.5312ZM61 57.1875C46.5473 57.1875 34.7891 45.4293 34.7891 30.9766C34.7891 16.5239 46.5473 4.76562 61 4.76562C75.4527 4.76562 87.2109 16.5239 87.2109 30.9766C87.2109 45.4293 75.4527 57.1875 61 57.1875ZM111.039 68.992C111.039 82.4541 100.087 93.4062 86.6248 93.4062H77.7743C79.092 92.4786 80.4542 91.5345 81.8484 90.5693C85.1627 88.2739 88.9194 85.6726 92.8129 82.7684C93.8678 81.9816 94.0849 80.4885 93.2981 79.4337C92.5113 78.3788 91.0184 78.1613 89.9633 78.9483C86.1372 81.8022 82.5778 84.2672 79.1354 86.6512C76.9744 88.1476 74.8875 89.5942 72.9143 91.0165V88.4619C72.9141 78.0493 81.3854 69.5781 91.7979 69.5781H98.7866C102.983 69.5781 107.09 68.9565 111.039 67.7267V68.992Z" fill="#58AFDA"/>
<path d="M62.1147 29.0405C58.5626 27.1631 56.2344 25.7978 56.2344 23.9973C56.2344 21.3695 58.3722 19.2317 61 19.2317C63.6278 19.2317 65.7656 21.3695 65.7656 23.9973C65.7656 25.3133 66.8326 26.3801 68.1484 26.3801C69.4642 26.3801 70.5312 25.3133 70.5312 23.9973C70.5312 19.5643 67.4891 15.8286 63.3828 14.7677V12.0833C63.3828 10.7672 62.3158 9.70044 61 9.70044C59.6842 9.70044 58.6172 10.7672 58.6172 12.0833V14.7677C54.5109 15.8286 51.4688 19.5643 51.4688 23.9973C51.4688 28.8037 55.9413 31.1679 59.8875 33.2538C63.4381 35.1308 65.7656 36.4954 65.7656 38.2942C65.7656 40.922 63.6278 43.0598 61 43.0598C58.3722 43.0598 56.2344 40.922 56.2344 38.2942C56.2344 36.9782 55.1676 35.9114 53.8516 35.9114C52.5355 35.9114 51.4688 36.9782 51.4688 38.2942C51.4688 42.7272 54.5109 46.4629 58.6172 47.5238V50.2082C58.6172 51.5243 59.6842 52.5911 61 52.5911C62.3158 52.5911 63.3828 51.5243 63.3828 50.2082V47.5238C67.4891 46.4629 70.5312 42.7272 70.5312 38.2942C70.5312 33.4895 66.0597 31.126 62.1147 29.0405Z" fill="#58AFDA"/>
</svg>
