<svg width="117" height="35" viewBox="0 0 117 35" fill="none" xmlns="http://www.w3.org/2000/svg">
<path d="M4.9 1.65L0.8 35H7.3L11.4 1.65H4.9ZM36.3113 7.25L37.0113 1.65H15.5113L14.8113 7.25H22.3113L18.9113 35H25.4113L28.8113 7.25H36.3113ZM57.7773 35H64.7773L54.9273 0.949997H50.0273L31.3773 35H38.4273L42.2273 28H55.6773L57.7773 35ZM44.9273 22.7L51.2273 10.7L54.4273 22.7H44.9273ZM72.7711 1.65L68.6711 35H85.4711L86.1711 29.4H75.8711L79.2711 1.65H72.7711ZM94.1898 35H100.69L102.59 19.75L116.54 1.65H108.84L100.29 13.25L94.5398 1.65H86.8398L96.0898 19.75L94.1898 35Z" fill="white"/>
</svg>
