<svg width="122" height="122" viewBox="0 0 122 122" fill="none" xmlns="http://www.w3.org/2000/svg">
<path d="M121.932 53.2762V13.3705C121.932 12.6383 121.595 11.9465 121.018 11.495C120.441 11.0434 119.688 10.8833 118.978 11.0587L80.4938 20.588L42.0102 11.0589C41.9968 11.0556 41.9835 11.0544 41.9701 11.0516C41.9275 11.0418 41.8846 11.0349 41.8412 11.0272C41.796 11.0194 41.7505 11.0113 41.7049 11.006C41.6611 11.001 41.6168 10.9994 41.5722 10.9965C41.5274 10.9941 41.4826 10.991 41.4378 10.991C41.3921 10.991 41.3463 10.9944 41.3003 10.9967C41.257 10.9994 41.2138 11.001 41.171 11.006C41.124 11.0113 41.0775 11.0199 41.0308 11.0277C40.9891 11.0351 40.9472 11.0418 40.9062 11.0513C40.8922 11.0544 40.8786 11.0558 40.8648 11.0589L1.80927 20.7298C0.746297 20.9931 0 21.947 0 23.0414V108.629C0 109.361 0.33693 110.053 0.913809 110.505C1.337 110.836 1.85502 111.011 2.38162 111.011C2.57272 111.011 2.76478 110.988 2.95397 110.941L41.4381 101.411L79.9219 110.941C79.9281 110.943 79.9345 110.943 79.9407 110.945C80.0172 110.963 80.0949 110.976 80.1728 110.987C80.195 110.99 80.2169 110.993 80.2388 110.996C80.3234 111.005 80.4087 111.011 80.494 111.011C80.5793 111.011 80.6646 111.005 80.749 110.996C80.7714 110.993 80.7935 110.99 80.8155 110.987C80.8927 110.976 80.9694 110.963 81.0447 110.945C81.0516 110.943 81.0592 110.943 81.0661 110.941L120.122 101.27C121.185 101.007 121.932 100.053 121.932 98.958V54.6768C122.015 54.2922 122.03 53.834 121.932 53.2762ZM4.76324 24.9055L39.0564 16.4136V78.0793C37.3041 78.6922 35.5971 80.131 33.8278 81.6231C29.6701 85.1294 26.7044 87.2572 23.4881 84.9862C19.4042 82.1034 19.7409 78.6998 20.7207 73.8363C21.1258 71.8247 21.5087 69.9242 21.0912 68.255C20.7147 66.7486 19.6482 65.5612 18.0894 64.9126C14.7996 63.5435 9.39066 64.6389 4.76348 66.629V24.9055H4.76324ZM39.0564 97.0937L4.763 105.586V71.8976C7.076 70.6841 9.7152 69.7397 12.0465 69.3101C15.0267 68.7616 16.2613 69.241 16.4741 69.4257C16.6225 70.0617 16.3192 71.5666 16.0516 72.8958C15.1616 77.3138 13.8167 83.9897 20.7417 88.8775C27.2043 93.4392 33.0382 88.5196 36.8988 85.2642C37.5343 84.7286 38.3311 84.0569 39.0569 83.5138V97.0937H39.0564ZM55.5467 99.9984L43.8192 97.0944V83.3978C47.5595 84.4307 53.2142 86.311 55.4044 90.6463C56.6509 93.1139 56.6947 96.2547 55.5467 99.9984ZM78.1129 105.587L60.1746 101.144C61.6143 96.2876 61.4458 92.041 59.6561 88.4987C56.2584 81.7741 48.1995 79.6303 43.8697 78.4787C43.8528 78.4739 43.8366 78.4699 43.8197 78.4654V16.4136L78.0972 24.9014L77.9363 44.2734L59.0235 38.512C58.1821 38.2556 57.2676 38.4839 56.6456 39.1063L52.2565 43.4954C51.7387 44.0135 51.4878 44.7405 51.5767 45.4672C51.6653 46.1942 52.0833 46.84 52.7102 47.2184L68.254 56.5993L64.4429 60.6524L59.0034 60.2607C58.3172 60.213 57.6374 60.4635 57.1484 60.9519L53.4541 64.6465C52.9099 65.191 52.6623 65.9647 52.7895 66.7238C52.9165 67.483 53.4026 68.134 54.0946 68.4711L61.8573 72.256L65.642 80.0182C65.9791 80.71 66.6303 81.1961 67.3893 81.3231C68.1484 81.451 68.9224 81.2023 69.4666 80.6585L73.1609 76.9644C73.6496 76.4757 73.9017 75.7988 73.8522 75.1094L73.4609 69.6702L77.5136 65.8591L78.1129 66.8518V105.587ZM80.0682 60.8735C79.6965 60.2576 79.0662 59.8427 78.3535 59.7448C78.2454 59.7298 78.1369 59.7226 78.0295 59.7226C77.4271 59.7226 76.8428 59.9511 76.398 60.3693L69.3725 66.9754C68.8504 67.4665 68.5771 68.1664 68.6286 68.8815L69.0232 74.365L68.4594 74.9286L65.7785 69.4305C65.5457 68.9527 65.1592 68.5665 64.6819 68.3339L59.1833 65.6527L59.7471 65.089L65.2309 65.4838C65.9443 65.5312 66.6456 65.262 67.1367 64.7399L73.7428 57.7142C74.2356 57.1899 74.465 56.4711 74.3673 55.7586C74.2692 55.0459 73.8543 54.4154 73.2386 54.0439L57.7756 44.7119L59.0027 43.485L79.5588 49.7472C79.5638 49.7489 79.5688 49.7501 79.574 49.752L79.5974 49.7589C79.6057 49.7615 79.6141 49.7622 79.6222 49.7646C79.7067 49.7894 79.7932 49.8089 79.8812 49.8242C79.9069 49.8287 79.9326 49.8328 79.9581 49.8366C80.0403 49.8483 80.1233 49.8554 80.2078 49.8585C80.2243 49.859 80.241 49.8614 80.2577 49.8614C80.2624 49.8616 80.2667 49.8623 80.2715 49.8623C80.2781 49.8623 80.2851 49.8623 80.2917 49.8623C80.3818 49.8623 80.4702 49.8564 80.5572 49.8466C80.5753 49.8447 80.5929 49.8411 80.6113 49.8385C80.6935 49.8275 80.774 49.8123 80.8531 49.7932C80.876 49.7877 80.8981 49.782 80.9208 49.7758C81.0109 49.751 81.0993 49.7225 81.1846 49.6879C81.1893 49.686 81.1939 49.6846 81.1986 49.6829C81.2901 49.6452 81.3781 49.6007 81.4631 49.5523C81.4834 49.5409 81.5029 49.5285 81.5227 49.5166C81.5908 49.4751 81.6568 49.4308 81.7202 49.3829C81.7381 49.3693 81.7564 49.3569 81.7741 49.3429C81.8496 49.2826 81.9213 49.218 81.9888 49.1489C81.994 49.1437 82 49.1396 82.005 49.1344L86.6638 44.3054C86.6724 44.2963 86.6808 44.2875 86.6896 44.2784L89.7048 41.0538C90.2366 40.4845 90.9148 40.3999 91.2717 40.3999C91.9189 40.3999 92.5489 40.6592 93.0012 41.1112C93.4627 41.5728 93.721 42.2156 93.7105 42.8752C93.7012 43.4773 93.4682 44.0225 93.0548 44.4107L89.1772 48.0516C89.166 48.0621 89.1551 48.0728 89.1441 48.0836L85.0116 52.1167C84.3759 52.7369 84.1383 53.6598 84.3956 54.5102L90.6291 75.1065L89.3998 76.3361L80.0682 60.8735ZM117.169 54.2972C117.169 54.3005 117.169 54.3036 117.169 54.307V97.0942L82.8752 105.586V74.7432L86.8938 81.4022C87.2722 82.0291 87.9179 82.447 88.6447 82.5357C88.7409 82.5474 88.8372 82.5531 88.9328 82.5531C89.5604 82.5531 90.1673 82.3048 90.6165 81.8554L95.0056 77.4658C95.6263 76.8448 95.8553 75.9327 95.6011 75.0922L89.3733 54.5148L92.4546 51.5077L96.3154 47.8824C97.6772 46.6043 98.4435 44.8522 98.4733 42.9498C98.504 41.0085 97.737 39.1104 96.3693 37.7426C95.0306 36.404 93.1727 35.6362 91.272 35.6362C89.3226 35.6362 87.5307 36.4047 86.2259 37.8L83.2235 41.0109L82.8756 41.3716V24.9055L100.886 20.4458C100.748 21.0544 100.586 21.6591 100.421 22.277C99.7781 24.6762 99.0492 27.396 99.8396 30.6802C100.677 34.1579 103.07 37.7407 107.371 41.9562C115.455 49.878 116.912 53.071 117.169 53.8659V54.2972ZM117.169 45.4077H117.169C115.557 43.5007 113.447 41.2418 110.705 38.5542C103.011 31.0136 103.854 27.8656 105.021 23.5094C105.368 22.2153 105.745 20.7939 105.928 19.197L117.169 16.4136V45.4077H117.169Z" fill="#58AFDA"/>
<path d="M23.2453 26.7363C22.9291 25.4593 21.6367 24.682 20.3614 24.9968L10.8752 27.3456C9.59848 27.6618 8.81978 28.953 9.13574 30.2295C9.40404 31.3141 10.3762 32.0392 11.4456 32.0392C11.6353 32.0392 11.8276 32.0164 12.0199 31.9689L21.5061 29.6202C22.7826 29.304 23.5613 28.0127 23.2453 26.7363Z" fill="#58AFDA"/>
<path d="M29.9413 25.0782C29.6251 23.8017 28.3332 23.0228 27.0569 23.3397L27.0024 23.3533C25.7259 23.6695 24.9474 24.961 25.2639 26.2377C25.5324 27.3219 26.5046 28.0467 27.5735 28.0467C27.7634 28.0467 27.9557 28.0238 28.1485 27.9762L28.2031 27.9626C29.4793 27.6464 30.2578 26.3549 29.9413 25.0782Z" fill="#58AFDA"/>
</svg>
